<svg xmlns="http://www.w3.org/2000/svg" width="212.678" height="120" viewBox="0 0 212.678 120"><g id="Grupo_1" data-name="Grupo 1" transform="translate(276 -307.512)"><path id="Caminho_1" data-name="Caminho 1" d="M-243.2 364.3v-56.352h15.45v5.77h-9.165v18.162h8.316v5.771h-8.316v20.793h9.67v5.856z" transform="translate(-7.083 -.094)" fill="#2d00f7"/><path id="Caminho_2" data-name="Caminho 2" d="M-25.089 444.612v-56.353h15.45v5.771H-18.8v18.161h8.316v5.771H-18.8v20.793h9.67v5.858z" transform="translate(-54.188 -17.438)" fill="#2d00f7"/><path id="Caminho_3" data-name="Caminho 3" d="M-170.75 364.3v-56.352h11.88q4.5 0 6.279 2.249a9.948 9.948 0 011.781 6.323v12.9q0 5.776-4.241 6.79v.342a5.109 5.109 0 013.267 1.992 8.138 8.138 0 011.147 4.8V364.3h-6.279v-21.473a4.331 4.331 0 00-.684-2.714 3.113 3.113 0 00-2.542-.849h-4.33V364.3zm13.834-47.019q0-3.565-3.4-3.564h-4.158V334h4.241a3.279 3.279 0 002.424-.891 4.311 4.311 0 00.891-3.1v-12.726z" transform="translate(-22.73 -.094)" fill="#2d00f7"/><path id="Caminho_4" data-name="Caminho 4" d="M-118.47 364.3l-8.316-44.135h-.339c.056.908.256 44.135.256 44.135h-6.247v-56.352h9.39l7.383 42.18h.343c-.055-1.133-.256-42.18-.256-42.18h6.234V364.3z" transform="translate(-30.858 -.094)" fill="#2d00f7"/><path id="Caminho_5" data-name="Caminho 5" d="M-56.9 364.3l-8.316-44.135h-.338c.055.908.256 44.135.256 44.135h-6.248v-56.352h9.39l7.383 42.18h.339c-.056-1.133-.256-42.18-.256-42.18h6.234V364.3z" transform="translate(-44.154 -.094)" fill="#2d00f7"/><path id="Caminho_6" data-name="Caminho 6" d="M-14.367 364.207l-.339-2.97h-.256a6.58 6.58 0 01-2.12 2.376 7.059 7.059 0 01-3.992.932 8.232 8.232 0 01-6.658-2.756q-2.342-2.76-2.335-8.022v-35.3q0-5.263 2.5-8.105t7.343-2.845q4.921 0 7.466 2.887t2.548 8.147v6.707h-6.023v-7.3q0-4.5-3.819-4.5-3.658 0-3.654 4.5v36.327q0 4.414 3.654 4.413 3.222 0 3.819-3.905v-14.18h-3.647v-5.688h9.67v29.282z" transform="translate(-53.113)" fill="#2d00f7"/><path id="Caminho_7" data-name="Caminho 7" d="M-204.987 318.265h.339l4.752 46h6.368l-6.707-56.353h-9.082L-221.27 415.86h-.346l-4.752-44.981h-6.361l6.707 56.353h9.075l11.96-108.966z" transform="translate(-9.345 -.086)" fill="#f20089"/><path id="Caminho_8" data-name="Caminho 8" d="M-190.853 444.612v-56.353h6.368v56.353z" transform="translate(-18.389 -17.438)" fill="#2d00f7"/><path id="Caminho_9" data-name="Caminho 9" d="M-91.685 364.3v-56.354h6.368V364.3z" transform="translate(-39.805 -.094)" fill="#2d00f7"/><path id="Caminho_10" data-name="Caminho 10" d="M-170.75 444.612v-56.353h6.279v50.5h13.834v5.858z" transform="translate(-22.73 -17.438)" fill="#2d00f7"/><path id="Caminho_11" data-name="Caminho 11" d="M-276 364.3v-56.352h6.279v50.5h10.021v5.852z" transform="translate(0 -.094)" fill="#2d00f7"/><path id="Caminho_12" data-name="Caminho 12" d="M-133.116 444.612v-56.353h6.278v50.5H-113v5.858z" transform="translate(-30.858 -17.438)" fill="#2d00f7"/><path id="Caminho_13" data-name="Caminho 13" d="M-84.089 444.612l-1.443-13.749h-6.955l-1.361 13.749h-6.278l6.616-56.353h9.082l6.707 56.353zm-7.805-19.267h5.767l-2.714-26.733h-.339l-2.714 26.733z" transform="translate(-37.982 -17.439)" fill="#2d00f7"/><path id="Caminho_14" data-name="Caminho 14" d="M-47.34 444.518l-.339-2.971h-.255a6.584 6.584 0 01-2.121 2.376 7.058 7.058 0 01-3.992.932 8.234 8.234 0 01-6.658-2.756q-2.342-2.761-2.335-8.022v-35.3q0-5.263 2.5-8.105t7.343-2.845q4.921 0 7.466 2.887t2.548 8.147v6.707H-49.2v-7.3c0-3-1.278-4.5-3.82-4.5q-3.658 0-3.654 4.5v36.327q0 4.414 3.654 4.414 3.222 0 3.82-3.906v-14.179h-4.248v-5.688h10.27v29.282z" transform="translate(-45.992 -17.344)" fill="#2d00f7"/></g></svg>